<svg width="20" height="20" viewBox="0 0 20 20" fill="none" xmlns="http://www.w3.org/2000/svg">
<path fill-rule="evenodd" clip-rule="evenodd" d="M19.6 10.2275C19.6 9.51837 19.5364 8.83655 19.4182 8.18201H10V12.0502H15.3818C15.15 13.3002 14.4455 14.3593 13.3864 15.0684V17.5775H16.6182C18.5091 15.8366 19.6 13.2729 19.6 10.2275Z" fill="#4285F4"/>
<path fill-rule="evenodd" clip-rule="evenodd" d="M9.99972 20C12.6997 20 14.9634 19.1046 16.6179 17.5773L13.3861 15.0682C12.4906 15.6682 11.3452 16.0228 9.99972 16.0228C7.39517 16.0228 5.19063 14.2637 4.40426 11.9H1.06335V14.4909C2.70881 17.7591 6.09063 20 9.99972 20Z" fill="#34A853"/>
<path fill-rule="evenodd" clip-rule="evenodd" d="M4.40455 11.8997C4.20455 11.2997 4.09091 10.6588 4.09091 9.9997C4.09091 9.34061 4.20455 8.6997 4.40455 8.0997V5.50879H1.06364C0.386364 6.85879 0 8.38606 0 9.9997C0 11.6133 0.386364 13.1406 1.06364 14.4906L4.40455 11.8997Z" fill="#FBBC05"/>
<path fill-rule="evenodd" clip-rule="evenodd" d="M9.99972 3.97727C11.4679 3.97727 12.7861 4.48182 13.8224 5.47273L16.6906 2.60455C14.9588 0.990909 12.6952 0 9.99972 0C6.09063 0 2.70881 2.24091 1.06335 5.50909L4.40426 8.1C5.19063 5.73636 7.39517 3.97727 9.99972 3.97727Z" fill="#EA4335"/>
</svg>
